# xmcd
#
# Track frame offsets:
#	150
#	11209
#	20634
#	29903
#	40880
#	51916
#	63208
#	73866
#	84225
#	97020
#	107767
#	121550
#	135061
#	146553
#	163068
#	177539
#	191230
#	203320
#	215804
#	232109
#
# Disc length: 3246 seconds
#
# Revision: 3
# Processed by: cddbd v1.5.2PL0 Copyright (c) Steve Scherf et al.
# Submitted via: audiograbber 1.83.01
#
DISCID=240cac14
DTITLE=Waylon Jennings - Waylon Jennings - The Essential - Disc 1
DYEAR=2007
DGENRE=Country
TTITLE0=Waylon Jennings - Big Mamou
TTITLE1=Waylon Jennings - That's The Chance I'll Have To Take
TTITLE2=Waylon Jennings - Stop The World (And Let Me Off)
TTITLE3=Waylon Jennings - Anita, You're Dreaming
TTITLE4=Waylon Jennings - (That's What You Get) For Lovin' Me
TTITLE5=Waylon Jennings - The Chokin' Kind
TTITLE6=Waylon Jennings - Only Daddy That'll Walk The Line
TTITLE7=Waylon Jennings - Just To Satisfy You
TTITLE8=Waylon Jennings - Cedartown, Georgia
TTITLE9=Waylon Jennings - The Taker
TTITLE10=Waylon Jennings - Lovin' Her Was Easier (Than Anything I'll Ever Do Ag
TTITLE10=ain)
TTITLE11=Waylon Jennings - Sweet Dream Woman
TTITLE12=Waylon Jennings - Ladies Love Outlaws
TTITLE13=Waylon Jennings - Lonesome, On'ry And Mean
TTITLE14=Waylon Jennings - Freedom To Stay
TTITLE15=Waylon Jennings - Pretend I Never Happened
TTITLE16=Waylon Jennings - You Can Have Her
TTITLE17=Waylon Jennings - We Had It All
TTITLE18=Waylon Jennings - Honky Tonk Heroes
TTITLE19=Waylon Jennings - You Ask Me To 
EXTD=
EXTT0=
EXTT1=
EXTT2=
EXTT3=
EXTT4=
EXTT5=
EXTT6=
EXTT7=
EXTT8=
EXTT9=
EXTT10=
EXTT11=
EXTT12=
EXTT13=
EXTT14=
EXTT15=
EXTT16=
EXTT17=
EXTT18=
EXTT19=
PLAYORDER=
